<mxfile host="Electron" modified="2024-08-27T06:19:50.588Z" agent="Mozilla/5.0 (Windows NT 10.0; Win64; x64) AppleWebKit/537.36 (KHTML, like Gecko) draw.io/24.5.3 Chrome/124.0.6367.207 Electron/30.0.6 Safari/537.36" etag="f4TIo4OkTXVWaDlLT4Ey" version="24.5.3" type="device">
  <diagram name="Page-1" id="4FYXqvqI-jiAmky2QAjR">
    <mxGraphModel dx="1418" dy="828" grid="1" gridSize="10" guides="1" tooltips="1" connect="1" arrows="1" fold="1" page="1" pageScale="1" pageWidth="1169" pageHeight="827" math="0" shadow="0">
      <root>
        <mxCell id="0" />
        <mxCell id="1" parent="0" />
        <mxCell id="FUVsSBjmbc8zg6AMFsb8-2" value="" style="verticalLabelPosition=bottom;shadow=0;dashed=0;align=center;html=1;verticalAlign=top;shape=mxgraph.electrical.opto_electronics.7_segment_display_with_dp;pointerEvents=1;" parent="1" vertex="1">
          <mxGeometry x="970" y="210" width="40" height="46.9" as="geometry" />
        </mxCell>
        <mxCell id="FUVsSBjmbc8zg6AMFsb8-3" value="" style="verticalLabelPosition=bottom;shadow=0;dashed=0;align=center;html=1;verticalAlign=top;shape=mxgraph.electrical.opto_electronics.7_segment_display_with_dp;pointerEvents=1;" parent="1" vertex="1">
          <mxGeometry x="970" y="270" width="40" height="46.9" as="geometry" />
        </mxCell>
        <mxCell id="FUVsSBjmbc8zg6AMFsb8-4" value="" style="verticalLabelPosition=bottom;shadow=0;dashed=0;align=center;html=1;verticalAlign=top;shape=mxgraph.electrical.opto_electronics.7_segment_display_with_dp;pointerEvents=1;" parent="1" vertex="1">
          <mxGeometry x="970" y="330" width="40" height="46.9" as="geometry" />
        </mxCell>
        <mxCell id="FUVsSBjmbc8zg6AMFsb8-5" value="" style="verticalLabelPosition=bottom;shadow=0;dashed=0;align=center;html=1;verticalAlign=top;shape=mxgraph.electrical.opto_electronics.7_segment_display_with_dp;pointerEvents=1;" parent="1" vertex="1">
          <mxGeometry x="970" y="390" width="40" height="46.9" as="geometry" />
        </mxCell>
        <mxCell id="FUVsSBjmbc8zg6AMFsb8-8" value="BCDTO7SEG" style="whiteSpace=wrap;html=1;aspect=fixed;" parent="1" vertex="1">
          <mxGeometry x="770" y="226.89999999999998" width="100" height="100" as="geometry" />
        </mxCell>
        <mxCell id="FUVsSBjmbc8zg6AMFsb8-9" value="" style="endArrow=none;html=1;rounded=0;" parent="1" edge="1">
          <mxGeometry width="50" height="50" relative="1" as="geometry">
            <mxPoint x="870" y="283.1" as="sourcePoint" />
            <mxPoint x="960" y="283" as="targetPoint" />
          </mxGeometry>
        </mxCell>
        <mxCell id="FUVsSBjmbc8zg6AMFsb8-10" value="" style="endArrow=none;html=1;rounded=0;" parent="1" edge="1">
          <mxGeometry width="50" height="50" relative="1" as="geometry">
            <mxPoint x="900" y="295" as="sourcePoint" />
            <mxPoint x="920" y="270" as="targetPoint" />
            <Array as="points" />
          </mxGeometry>
        </mxCell>
        <mxCell id="FUVsSBjmbc8zg6AMFsb8-11" value="8" style="text;html=1;align=center;verticalAlign=middle;whiteSpace=wrap;rounded=0;" parent="1" vertex="1">
          <mxGeometry x="880" y="250" width="60" height="30" as="geometry" />
        </mxCell>
        <mxCell id="FUVsSBjmbc8zg6AMFsb8-12" value="" style="endArrow=none;html=1;rounded=0;" parent="1" edge="1">
          <mxGeometry width="50" height="50" relative="1" as="geometry">
            <mxPoint x="880" y="420" as="sourcePoint" />
            <mxPoint x="960" y="420" as="targetPoint" />
          </mxGeometry>
        </mxCell>
        <mxCell id="FUVsSBjmbc8zg6AMFsb8-13" value="" style="endArrow=none;html=1;rounded=0;" parent="1" edge="1">
          <mxGeometry width="50" height="50" relative="1" as="geometry">
            <mxPoint x="910" y="436.9" as="sourcePoint" />
            <mxPoint x="930" y="411.9" as="targetPoint" />
            <Array as="points" />
          </mxGeometry>
        </mxCell>
        <mxCell id="FUVsSBjmbc8zg6AMFsb8-14" value="4" style="text;html=1;align=center;verticalAlign=middle;whiteSpace=wrap;rounded=0;" parent="1" vertex="1">
          <mxGeometry x="890" y="390" width="60" height="30" as="geometry" />
        </mxCell>
        <mxCell id="FUVsSBjmbc8zg6AMFsb8-16" value="RING COUNTER" style="rounded=0;whiteSpace=wrap;html=1;" parent="1" vertex="1">
          <mxGeometry x="660" y="490" width="220" height="60" as="geometry" />
        </mxCell>
        <mxCell id="FUVsSBjmbc8zg6AMFsb8-20" value="" style="endArrow=none;html=1;rounded=0;" parent="1" edge="1">
          <mxGeometry width="50" height="50" relative="1" as="geometry">
            <mxPoint x="770" y="420" as="sourcePoint" />
            <mxPoint x="880" y="420" as="targetPoint" />
          </mxGeometry>
        </mxCell>
        <mxCell id="FUVsSBjmbc8zg6AMFsb8-21" value="" style="endArrow=none;html=1;rounded=0;exitX=0.5;exitY=0;exitDx=0;exitDy=0;" parent="1" source="FUVsSBjmbc8zg6AMFsb8-16" edge="1">
          <mxGeometry width="50" height="50" relative="1" as="geometry">
            <mxPoint x="720" y="470" as="sourcePoint" />
            <mxPoint x="770" y="420" as="targetPoint" />
          </mxGeometry>
        </mxCell>
        <mxCell id="FUVsSBjmbc8zg6AMFsb8-24" style="edgeStyle=orthogonalEdgeStyle;rounded=0;orthogonalLoop=1;jettySize=auto;html=1;exitX=0.375;exitY=1;exitDx=10;exitDy=0;exitPerimeter=0;entryX=0.5;entryY=0;entryDx=0;entryDy=0;" parent="1" source="FUVsSBjmbc8zg6AMFsb8-23" target="FUVsSBjmbc8zg6AMFsb8-16" edge="1">
          <mxGeometry relative="1" as="geometry" />
        </mxCell>
        <object label="MUX&amp;nbsp;&lt;div&gt;RING&lt;/div&gt;" id="FUVsSBjmbc8zg6AMFsb8-23">
          <mxCell style="shadow=0;dashed=0;align=center;html=1;strokeWidth=1;shape=mxgraph.electrical.abstract.mux2;whiteSpace=wrap;" parent="1" vertex="1">
            <mxGeometry x="640" y="226.89999999999998" width="80" height="120" as="geometry" />
          </mxCell>
        </object>
        <mxCell id="FUVsSBjmbc8zg6AMFsb8-25" style="edgeStyle=orthogonalEdgeStyle;rounded=0;orthogonalLoop=1;jettySize=auto;html=1;exitX=1;exitY=0.5;exitDx=0;exitDy=-5;exitPerimeter=0;entryX=-0.033;entryY=0.554;entryDx=0;entryDy=0;entryPerimeter=0;" parent="1" source="FUVsSBjmbc8zg6AMFsb8-23" target="FUVsSBjmbc8zg6AMFsb8-8" edge="1">
          <mxGeometry relative="1" as="geometry" />
        </mxCell>
        <object label="Mux" id="FUVsSBjmbc8zg6AMFsb8-26">
          <mxCell style="shadow=0;dashed=0;align=center;html=1;strokeWidth=1;shape=mxgraph.electrical.abstract.mux2;whiteSpace=wrap;" parent="1" vertex="1">
            <mxGeometry x="440" y="39.99999999999997" width="80" height="120" as="geometry" />
          </mxCell>
        </object>
        <object label="Mux" id="FUVsSBjmbc8zg6AMFsb8-28">
          <mxCell style="shadow=0;dashed=0;align=center;html=1;strokeWidth=1;shape=mxgraph.electrical.abstract.mux2;whiteSpace=wrap;" parent="1" vertex="1">
            <mxGeometry x="445" y="189.99999999999997" width="80" height="120" as="geometry" />
          </mxCell>
        </object>
        <object label="Mux" id="FUVsSBjmbc8zg6AMFsb8-29">
          <mxCell style="shadow=0;dashed=0;align=center;html=1;strokeWidth=1;shape=mxgraph.electrical.abstract.mux2;whiteSpace=wrap;" parent="1" vertex="1">
            <mxGeometry x="445" y="340" width="80" height="120" as="geometry" />
          </mxCell>
        </object>
        <object label="Mux" id="FUVsSBjmbc8zg6AMFsb8-30">
          <mxCell style="shadow=0;dashed=0;align=center;html=1;strokeWidth=1;shape=mxgraph.electrical.abstract.mux2;whiteSpace=wrap;" parent="1" vertex="1">
            <mxGeometry x="445" y="490" width="80" height="120" as="geometry" />
          </mxCell>
        </object>
        <mxCell id="FUVsSBjmbc8zg6AMFsb8-31" value="TEXT1" style="rounded=0;whiteSpace=wrap;html=1;" parent="1" vertex="1">
          <mxGeometry x="320" y="60" width="80" height="20" as="geometry" />
        </mxCell>
        <mxCell id="FUVsSBjmbc8zg6AMFsb8-33" style="edgeStyle=orthogonalEdgeStyle;rounded=0;orthogonalLoop=1;jettySize=auto;html=1;exitX=1;exitY=0.5;exitDx=0;exitDy=-5;exitPerimeter=0;entryX=0;entryY=0.21666666666666667;entryDx=0;entryDy=3;entryPerimeter=0;" parent="1" source="FUVsSBjmbc8zg6AMFsb8-26" target="FUVsSBjmbc8zg6AMFsb8-23" edge="1">
          <mxGeometry relative="1" as="geometry" />
        </mxCell>
        <mxCell id="FUVsSBjmbc8zg6AMFsb8-34" style="edgeStyle=orthogonalEdgeStyle;rounded=0;orthogonalLoop=1;jettySize=auto;html=1;exitX=1;exitY=0.5;exitDx=0;exitDy=-5;exitPerimeter=0;entryX=0.103;entryY=0.374;entryDx=0;entryDy=0;entryPerimeter=0;" parent="1" source="FUVsSBjmbc8zg6AMFsb8-28" target="FUVsSBjmbc8zg6AMFsb8-23" edge="1">
          <mxGeometry relative="1" as="geometry">
            <Array as="points">
              <mxPoint x="550" y="245" />
              <mxPoint x="550" y="272" />
            </Array>
          </mxGeometry>
        </mxCell>
        <mxCell id="FUVsSBjmbc8zg6AMFsb8-35" style="edgeStyle=orthogonalEdgeStyle;rounded=0;orthogonalLoop=1;jettySize=auto;html=1;exitX=1;exitY=0.5;exitDx=0;exitDy=-5;exitPerimeter=0;entryX=0.086;entryY=0.524;entryDx=0;entryDy=0;entryPerimeter=0;" parent="1" source="FUVsSBjmbc8zg6AMFsb8-29" target="FUVsSBjmbc8zg6AMFsb8-23" edge="1">
          <mxGeometry relative="1" as="geometry" />
        </mxCell>
        <mxCell id="FUVsSBjmbc8zg6AMFsb8-36" style="edgeStyle=orthogonalEdgeStyle;rounded=0;orthogonalLoop=1;jettySize=auto;html=1;exitX=1;exitY=0.5;exitDx=0;exitDy=-5;exitPerimeter=0;entryX=0;entryY=0.65;entryDx=0;entryDy=3;entryPerimeter=0;" parent="1" source="FUVsSBjmbc8zg6AMFsb8-30" target="FUVsSBjmbc8zg6AMFsb8-23" edge="1">
          <mxGeometry relative="1" as="geometry">
            <Array as="points">
              <mxPoint x="600" y="545" />
              <mxPoint x="600" y="308" />
            </Array>
          </mxGeometry>
        </mxCell>
        <mxCell id="FUVsSBjmbc8zg6AMFsb8-37" value="TEXT2" style="rounded=0;whiteSpace=wrap;html=1;" parent="1" vertex="1">
          <mxGeometry x="320" y="90" width="80" height="20" as="geometry" />
        </mxCell>
        <mxCell id="FUVsSBjmbc8zg6AMFsb8-38" value="OFF" style="rounded=0;whiteSpace=wrap;html=1;" parent="1" vertex="1">
          <mxGeometry x="320" y="30" width="80" height="20" as="geometry" />
        </mxCell>
        <mxCell id="FUVsSBjmbc8zg6AMFsb8-39" value="BIN COUNT 0" style="rounded=0;whiteSpace=wrap;html=1;" parent="1" vertex="1">
          <mxGeometry x="190" y="120" width="210" height="40" as="geometry" />
        </mxCell>
        <mxCell id="FUVsSBjmbc8zg6AMFsb8-45" value="TEXT1" style="rounded=0;whiteSpace=wrap;html=1;" parent="1" vertex="1">
          <mxGeometry x="320" y="210" width="80" height="20" as="geometry" />
        </mxCell>
        <mxCell id="FUVsSBjmbc8zg6AMFsb8-66" style="edgeStyle=orthogonalEdgeStyle;rounded=0;orthogonalLoop=1;jettySize=auto;html=1;exitX=1;exitY=0.5;exitDx=0;exitDy=0;" parent="1" edge="1">
          <mxGeometry relative="1" as="geometry">
            <mxPoint x="410" y="250" as="sourcePoint" />
            <mxPoint x="455" y="250" as="targetPoint" />
          </mxGeometry>
        </mxCell>
        <mxCell id="FUVsSBjmbc8zg6AMFsb8-46" value="TEXT2" style="rounded=0;whiteSpace=wrap;html=1;" parent="1" vertex="1">
          <mxGeometry x="320" y="240" width="80" height="20" as="geometry" />
        </mxCell>
        <mxCell id="FUVsSBjmbc8zg6AMFsb8-47" value="OFF" style="rounded=0;whiteSpace=wrap;html=1;" parent="1" vertex="1">
          <mxGeometry x="320" y="180" width="80" height="20" as="geometry" />
        </mxCell>
        <mxCell id="FUVsSBjmbc8zg6AMFsb8-48" value="BIN COUNT 0" style="rounded=0;whiteSpace=wrap;html=1;" parent="1" vertex="1">
          <mxGeometry x="190" y="270" width="210" height="40" as="geometry" />
        </mxCell>
        <mxCell id="FUVsSBjmbc8zg6AMFsb8-49" value="TEXT1" style="rounded=0;whiteSpace=wrap;html=1;" parent="1" vertex="1">
          <mxGeometry x="320" y="356.9" width="80" height="20" as="geometry" />
        </mxCell>
        <mxCell id="FUVsSBjmbc8zg6AMFsb8-50" value="TEXT2" style="rounded=0;whiteSpace=wrap;html=1;" parent="1" vertex="1">
          <mxGeometry x="320" y="386.9" width="80" height="20" as="geometry" />
        </mxCell>
        <mxCell id="FUVsSBjmbc8zg6AMFsb8-51" value="OFF" style="rounded=0;whiteSpace=wrap;html=1;" parent="1" vertex="1">
          <mxGeometry x="320" y="326.9" width="80" height="20" as="geometry" />
        </mxCell>
        <mxCell id="FUVsSBjmbc8zg6AMFsb8-52" value="BIN COUNT 0" style="rounded=0;whiteSpace=wrap;html=1;" parent="1" vertex="1">
          <mxGeometry x="190" y="416.9" width="210" height="40" as="geometry" />
        </mxCell>
        <mxCell id="FUVsSBjmbc8zg6AMFsb8-53" value="TEXT1" style="rounded=0;whiteSpace=wrap;html=1;" parent="1" vertex="1">
          <mxGeometry x="320" y="510" width="80" height="20" as="geometry" />
        </mxCell>
        <mxCell id="FUVsSBjmbc8zg6AMFsb8-54" value="TEXT2" style="rounded=0;whiteSpace=wrap;html=1;" parent="1" vertex="1">
          <mxGeometry x="320" y="540" width="80" height="20" as="geometry" />
        </mxCell>
        <mxCell id="FUVsSBjmbc8zg6AMFsb8-55" value="OFF" style="rounded=0;whiteSpace=wrap;html=1;" parent="1" vertex="1">
          <mxGeometry x="320" y="480" width="80" height="20" as="geometry" />
        </mxCell>
        <mxCell id="FUVsSBjmbc8zg6AMFsb8-56" value="BIN COUNT 0" style="rounded=0;whiteSpace=wrap;html=1;" parent="1" vertex="1">
          <mxGeometry x="190" y="570" width="210" height="40" as="geometry" />
        </mxCell>
        <mxCell id="FUVsSBjmbc8zg6AMFsb8-57" style="edgeStyle=orthogonalEdgeStyle;rounded=0;orthogonalLoop=1;jettySize=auto;html=1;exitX=1;exitY=0.5;exitDx=0;exitDy=0;entryX=0;entryY=0.21666666666666667;entryDx=0;entryDy=3;entryPerimeter=0;" parent="1" source="FUVsSBjmbc8zg6AMFsb8-55" target="FUVsSBjmbc8zg6AMFsb8-30" edge="1">
          <mxGeometry relative="1" as="geometry" />
        </mxCell>
        <mxCell id="FUVsSBjmbc8zg6AMFsb8-58" style="edgeStyle=orthogonalEdgeStyle;rounded=0;orthogonalLoop=1;jettySize=auto;html=1;exitX=1;exitY=0.25;exitDx=0;exitDy=0;entryX=0.12;entryY=0.408;entryDx=0;entryDy=0;entryPerimeter=0;" parent="1" source="FUVsSBjmbc8zg6AMFsb8-53" target="FUVsSBjmbc8zg6AMFsb8-30" edge="1">
          <mxGeometry relative="1" as="geometry">
            <Array as="points">
              <mxPoint x="410" y="515" />
              <mxPoint x="410" y="539" />
            </Array>
          </mxGeometry>
        </mxCell>
        <mxCell id="FUVsSBjmbc8zg6AMFsb8-59" style="edgeStyle=orthogonalEdgeStyle;rounded=0;orthogonalLoop=1;jettySize=auto;html=1;exitX=1;exitY=0.5;exitDx=0;exitDy=0;entryX=0.102;entryY=0.519;entryDx=0;entryDy=0;entryPerimeter=0;" parent="1" source="FUVsSBjmbc8zg6AMFsb8-54" target="FUVsSBjmbc8zg6AMFsb8-30" edge="1">
          <mxGeometry relative="1" as="geometry" />
        </mxCell>
        <mxCell id="FUVsSBjmbc8zg6AMFsb8-60" style="edgeStyle=orthogonalEdgeStyle;rounded=0;orthogonalLoop=1;jettySize=auto;html=1;exitX=1;exitY=0.5;exitDx=0;exitDy=0;entryX=0;entryY=0.65;entryDx=0;entryDy=3;entryPerimeter=0;" parent="1" source="FUVsSBjmbc8zg6AMFsb8-56" target="FUVsSBjmbc8zg6AMFsb8-30" edge="1">
          <mxGeometry relative="1" as="geometry" />
        </mxCell>
        <mxCell id="FUVsSBjmbc8zg6AMFsb8-61" style="edgeStyle=orthogonalEdgeStyle;rounded=0;orthogonalLoop=1;jettySize=auto;html=1;exitX=1;exitY=0.5;exitDx=0;exitDy=0;entryX=0;entryY=0.65;entryDx=0;entryDy=3;entryPerimeter=0;" parent="1" source="FUVsSBjmbc8zg6AMFsb8-52" target="FUVsSBjmbc8zg6AMFsb8-29" edge="1">
          <mxGeometry relative="1" as="geometry" />
        </mxCell>
        <mxCell id="FUVsSBjmbc8zg6AMFsb8-62" style="edgeStyle=orthogonalEdgeStyle;rounded=0;orthogonalLoop=1;jettySize=auto;html=1;exitX=1;exitY=0.5;exitDx=0;exitDy=0;entryX=0.12;entryY=0.46;entryDx=0;entryDy=0;entryPerimeter=0;" parent="1" source="FUVsSBjmbc8zg6AMFsb8-50" target="FUVsSBjmbc8zg6AMFsb8-29" edge="1">
          <mxGeometry relative="1" as="geometry" />
        </mxCell>
        <mxCell id="FUVsSBjmbc8zg6AMFsb8-63" style="edgeStyle=orthogonalEdgeStyle;rounded=0;orthogonalLoop=1;jettySize=auto;html=1;exitX=1;exitY=0.5;exitDx=0;exitDy=0;entryX=0.09;entryY=0.249;entryDx=0;entryDy=0;entryPerimeter=0;" parent="1" source="FUVsSBjmbc8zg6AMFsb8-49" target="FUVsSBjmbc8zg6AMFsb8-29" edge="1">
          <mxGeometry relative="1" as="geometry" />
        </mxCell>
        <mxCell id="FUVsSBjmbc8zg6AMFsb8-64" style="edgeStyle=orthogonalEdgeStyle;rounded=0;orthogonalLoop=1;jettySize=auto;html=1;exitX=1;exitY=0.5;exitDx=0;exitDy=0;entryX=0.114;entryY=0.126;entryDx=0;entryDy=0;entryPerimeter=0;" parent="1" source="FUVsSBjmbc8zg6AMFsb8-51" target="FUVsSBjmbc8zg6AMFsb8-29" edge="1">
          <mxGeometry relative="1" as="geometry" />
        </mxCell>
        <mxCell id="FUVsSBjmbc8zg6AMFsb8-65" style="edgeStyle=orthogonalEdgeStyle;rounded=0;orthogonalLoop=1;jettySize=auto;html=1;exitX=1;exitY=0.5;exitDx=0;exitDy=0;entryX=0.049;entryY=0.678;entryDx=0;entryDy=0;entryPerimeter=0;" parent="1" source="FUVsSBjmbc8zg6AMFsb8-48" target="FUVsSBjmbc8zg6AMFsb8-28" edge="1">
          <mxGeometry relative="1" as="geometry" />
        </mxCell>
        <mxCell id="FUVsSBjmbc8zg6AMFsb8-67" style="edgeStyle=orthogonalEdgeStyle;rounded=0;orthogonalLoop=1;jettySize=auto;html=1;exitX=1;exitY=0.5;exitDx=0;exitDy=0;entryX=0.079;entryY=0.249;entryDx=0;entryDy=0;entryPerimeter=0;" parent="1" source="FUVsSBjmbc8zg6AMFsb8-45" target="FUVsSBjmbc8zg6AMFsb8-28" edge="1">
          <mxGeometry relative="1" as="geometry" />
        </mxCell>
        <mxCell id="FUVsSBjmbc8zg6AMFsb8-68" style="edgeStyle=orthogonalEdgeStyle;rounded=0;orthogonalLoop=1;jettySize=auto;html=1;exitX=1;exitY=0.5;exitDx=0;exitDy=0;entryX=0.09;entryY=0.09;entryDx=0;entryDy=0;entryPerimeter=0;" parent="1" source="FUVsSBjmbc8zg6AMFsb8-47" target="FUVsSBjmbc8zg6AMFsb8-28" edge="1">
          <mxGeometry relative="1" as="geometry" />
        </mxCell>
        <mxCell id="FUVsSBjmbc8zg6AMFsb8-69" style="edgeStyle=orthogonalEdgeStyle;rounded=0;orthogonalLoop=1;jettySize=auto;html=1;exitX=1;exitY=0.5;exitDx=0;exitDy=0;entryX=0;entryY=0.65;entryDx=0;entryDy=3;entryPerimeter=0;" parent="1" source="FUVsSBjmbc8zg6AMFsb8-39" target="FUVsSBjmbc8zg6AMFsb8-26" edge="1">
          <mxGeometry relative="1" as="geometry" />
        </mxCell>
        <mxCell id="FUVsSBjmbc8zg6AMFsb8-70" style="edgeStyle=orthogonalEdgeStyle;rounded=0;orthogonalLoop=1;jettySize=auto;html=1;exitX=1;exitY=0.5;exitDx=0;exitDy=0;entryX=0.125;entryY=0.503;entryDx=0;entryDy=0;entryPerimeter=0;" parent="1" source="FUVsSBjmbc8zg6AMFsb8-37" target="FUVsSBjmbc8zg6AMFsb8-26" edge="1">
          <mxGeometry relative="1" as="geometry" />
        </mxCell>
        <mxCell id="FUVsSBjmbc8zg6AMFsb8-71" style="edgeStyle=orthogonalEdgeStyle;rounded=0;orthogonalLoop=1;jettySize=auto;html=1;exitX=1;exitY=0.5;exitDx=0;exitDy=0;entryX=0.1;entryY=0.24;entryDx=0;entryDy=0;entryPerimeter=0;" parent="1" source="FUVsSBjmbc8zg6AMFsb8-31" target="FUVsSBjmbc8zg6AMFsb8-26" edge="1">
          <mxGeometry relative="1" as="geometry" />
        </mxCell>
        <mxCell id="FUVsSBjmbc8zg6AMFsb8-72" style="edgeStyle=orthogonalEdgeStyle;rounded=0;orthogonalLoop=1;jettySize=auto;html=1;exitX=1;exitY=0.5;exitDx=0;exitDy=0;entryX=0.11;entryY=0.08;entryDx=0;entryDy=0;entryPerimeter=0;" parent="1" source="FUVsSBjmbc8zg6AMFsb8-38" target="FUVsSBjmbc8zg6AMFsb8-26" edge="1">
          <mxGeometry relative="1" as="geometry" />
        </mxCell>
        <mxCell id="FUVsSBjmbc8zg6AMFsb8-74" value="" style="endArrow=none;dashed=1;html=1;rounded=0;" parent="1" edge="1">
          <mxGeometry width="50" height="50" relative="1" as="geometry">
            <mxPoint x="620" y="580" as="sourcePoint" />
            <mxPoint x="620" y="138.45" as="targetPoint" />
          </mxGeometry>
        </mxCell>
        <mxCell id="FUVsSBjmbc8zg6AMFsb8-75" value="" style="endArrow=none;dashed=1;html=1;rounded=0;" parent="1" edge="1">
          <mxGeometry width="50" height="50" relative="1" as="geometry">
            <mxPoint x="940" y="140" as="sourcePoint" />
            <mxPoint x="620" y="140" as="targetPoint" />
          </mxGeometry>
        </mxCell>
        <mxCell id="FUVsSBjmbc8zg6AMFsb8-76" value="" style="endArrow=none;dashed=1;html=1;rounded=0;" parent="1" edge="1">
          <mxGeometry width="50" height="50" relative="1" as="geometry">
            <mxPoint x="940" y="580" as="sourcePoint" />
            <mxPoint x="940" y="140" as="targetPoint" />
          </mxGeometry>
        </mxCell>
        <mxCell id="FUVsSBjmbc8zg6AMFsb8-78" value="" style="endArrow=none;dashed=1;html=1;rounded=0;" parent="1" edge="1">
          <mxGeometry width="50" height="50" relative="1" as="geometry">
            <mxPoint x="620" y="580" as="sourcePoint" />
            <mxPoint x="940" y="580" as="targetPoint" />
          </mxGeometry>
        </mxCell>
        <mxCell id="FUVsSBjmbc8zg6AMFsb8-81" style="edgeStyle=orthogonalEdgeStyle;rounded=0;orthogonalLoop=1;jettySize=auto;html=1;exitX=0;exitY=0.5;exitDx=0;exitDy=0;entryX=1;entryY=0.5;entryDx=0;entryDy=0;" parent="1" source="FUVsSBjmbc8zg6AMFsb8-79" target="FUVsSBjmbc8zg6AMFsb8-80" edge="1">
          <mxGeometry relative="1" as="geometry" />
        </mxCell>
        <mxCell id="FUVsSBjmbc8zg6AMFsb8-107" style="edgeStyle=orthogonalEdgeStyle;rounded=0;orthogonalLoop=1;jettySize=auto;html=1;exitX=0.5;exitY=1;exitDx=0;exitDy=0;" parent="1" source="FUVsSBjmbc8zg6AMFsb8-79" edge="1">
          <mxGeometry relative="1" as="geometry">
            <mxPoint x="700" y="800" as="targetPoint" />
          </mxGeometry>
        </mxCell>
        <mxCell id="FUVsSBjmbc8zg6AMFsb8-79" value="DIV 1" style="whiteSpace=wrap;html=1;aspect=fixed;" parent="1" vertex="1">
          <mxGeometry x="660" y="640" width="80" height="80" as="geometry" />
        </mxCell>
        <mxCell id="FUVsSBjmbc8zg6AMFsb8-82" style="edgeStyle=orthogonalEdgeStyle;rounded=0;orthogonalLoop=1;jettySize=auto;html=1;exitX=0;exitY=0.5;exitDx=0;exitDy=0;entryX=0;entryY=0.5;entryDx=0;entryDy=0;" parent="1" source="FUVsSBjmbc8zg6AMFsb8-80" target="FUVsSBjmbc8zg6AMFsb8-56" edge="1">
          <mxGeometry relative="1" as="geometry" />
        </mxCell>
        <mxCell id="FUVsSBjmbc8zg6AMFsb8-83" style="edgeStyle=orthogonalEdgeStyle;rounded=0;orthogonalLoop=1;jettySize=auto;html=1;exitX=0;exitY=0.5;exitDx=0;exitDy=0;entryX=0;entryY=0.5;entryDx=0;entryDy=0;" parent="1" source="FUVsSBjmbc8zg6AMFsb8-80" target="FUVsSBjmbc8zg6AMFsb8-52" edge="1">
          <mxGeometry relative="1" as="geometry" />
        </mxCell>
        <mxCell id="FUVsSBjmbc8zg6AMFsb8-84" style="edgeStyle=orthogonalEdgeStyle;rounded=0;orthogonalLoop=1;jettySize=auto;html=1;exitX=0;exitY=0.5;exitDx=0;exitDy=0;entryX=0;entryY=0.5;entryDx=0;entryDy=0;" parent="1" source="FUVsSBjmbc8zg6AMFsb8-80" target="FUVsSBjmbc8zg6AMFsb8-48" edge="1">
          <mxGeometry relative="1" as="geometry" />
        </mxCell>
        <mxCell id="FUVsSBjmbc8zg6AMFsb8-85" style="edgeStyle=orthogonalEdgeStyle;rounded=0;orthogonalLoop=1;jettySize=auto;html=1;exitX=0;exitY=0.5;exitDx=0;exitDy=0;entryX=0;entryY=0.5;entryDx=0;entryDy=0;" parent="1" source="FUVsSBjmbc8zg6AMFsb8-80" target="FUVsSBjmbc8zg6AMFsb8-39" edge="1">
          <mxGeometry relative="1" as="geometry" />
        </mxCell>
        <mxCell id="FUVsSBjmbc8zg6AMFsb8-80" value="DIV 2" style="whiteSpace=wrap;html=1;aspect=fixed;" parent="1" vertex="1">
          <mxGeometry x="190" y="640" width="80" height="80" as="geometry" />
        </mxCell>
        <mxCell id="FUVsSBjmbc8zg6AMFsb8-86" style="edgeStyle=orthogonalEdgeStyle;rounded=0;orthogonalLoop=1;jettySize=auto;html=1;exitX=0.75;exitY=0;exitDx=0;exitDy=0;" parent="1" source="FUVsSBjmbc8zg6AMFsb8-79" edge="1">
          <mxGeometry relative="1" as="geometry">
            <mxPoint x="770" y="554" as="targetPoint" />
          </mxGeometry>
        </mxCell>
        <mxCell id="FUVsSBjmbc8zg6AMFsb8-87" value="TO CONTROL&lt;div&gt;SWITCH TEXT&lt;/div&gt;" style="text;html=1;align=center;verticalAlign=middle;whiteSpace=wrap;rounded=0;" parent="1" vertex="1">
          <mxGeometry x="480" y="160" width="95" height="30" as="geometry" />
        </mxCell>
        <mxCell id="FUVsSBjmbc8zg6AMFsb8-93" style="edgeStyle=orthogonalEdgeStyle;rounded=0;orthogonalLoop=1;jettySize=auto;html=1;exitX=1;exitY=0.5;exitDx=0;exitDy=0;entryX=0;entryY=0.25;entryDx=0;entryDy=0;" parent="1" source="FUVsSBjmbc8zg6AMFsb8-92" target="FUVsSBjmbc8zg6AMFsb8-39" edge="1">
          <mxGeometry relative="1" as="geometry" />
        </mxCell>
        <mxCell id="FUVsSBjmbc8zg6AMFsb8-95" style="edgeStyle=orthogonalEdgeStyle;rounded=0;orthogonalLoop=1;jettySize=auto;html=1;exitX=1;exitY=0.5;exitDx=0;exitDy=0;entryX=0;entryY=0.25;entryDx=0;entryDy=0;" parent="1" source="FUVsSBjmbc8zg6AMFsb8-92" target="FUVsSBjmbc8zg6AMFsb8-48" edge="1">
          <mxGeometry relative="1" as="geometry" />
        </mxCell>
        <mxCell id="FUVsSBjmbc8zg6AMFsb8-96" style="edgeStyle=orthogonalEdgeStyle;rounded=0;orthogonalLoop=1;jettySize=auto;html=1;exitX=1;exitY=0.5;exitDx=0;exitDy=0;entryX=0;entryY=0.25;entryDx=0;entryDy=0;" parent="1" source="FUVsSBjmbc8zg6AMFsb8-92" target="FUVsSBjmbc8zg6AMFsb8-52" edge="1">
          <mxGeometry relative="1" as="geometry" />
        </mxCell>
        <mxCell id="FUVsSBjmbc8zg6AMFsb8-97" style="edgeStyle=orthogonalEdgeStyle;rounded=0;orthogonalLoop=1;jettySize=auto;html=1;exitX=1;exitY=0.5;exitDx=0;exitDy=0;entryX=0;entryY=0.25;entryDx=0;entryDy=0;" parent="1" source="FUVsSBjmbc8zg6AMFsb8-92" target="FUVsSBjmbc8zg6AMFsb8-56" edge="1">
          <mxGeometry relative="1" as="geometry" />
        </mxCell>
        <mxCell id="FUVsSBjmbc8zg6AMFsb8-92" value="TO CONTROL&lt;div&gt;ENABLE&lt;/div&gt;" style="text;html=1;align=center;verticalAlign=middle;whiteSpace=wrap;rounded=0;" parent="1" vertex="1">
          <mxGeometry x="30" y="205" width="95" height="30" as="geometry" />
        </mxCell>
        <mxCell id="FUVsSBjmbc8zg6AMFsb8-98" value="TO CONTROL&lt;div&gt;SWITCH TEXT&lt;/div&gt;" style="text;html=1;align=center;verticalAlign=middle;whiteSpace=wrap;rounded=0;" parent="1" vertex="1">
          <mxGeometry x="480" y="310" width="95" height="30" as="geometry" />
        </mxCell>
        <mxCell id="FUVsSBjmbc8zg6AMFsb8-99" value="TO CONTROL&lt;div&gt;SWITCH TEXT&lt;/div&gt;" style="text;html=1;align=center;verticalAlign=middle;whiteSpace=wrap;rounded=0;" parent="1" vertex="1">
          <mxGeometry x="490" y="456.9" width="95" height="30" as="geometry" />
        </mxCell>
        <mxCell id="FUVsSBjmbc8zg6AMFsb8-101" value="TO CONTROL&lt;div&gt;SWITCH TEXT&lt;/div&gt;" style="text;html=1;align=center;verticalAlign=middle;whiteSpace=wrap;rounded=0;" parent="1" vertex="1">
          <mxGeometry x="490" y="620" width="95" height="30" as="geometry" />
        </mxCell>
        <mxCell id="FUVsSBjmbc8zg6AMFsb8-104" value="1khz" style="text;html=1;align=center;verticalAlign=middle;whiteSpace=wrap;rounded=0;" parent="1" vertex="1">
          <mxGeometry x="120" y="650" width="70" height="30" as="geometry" />
        </mxCell>
        <mxCell id="FUVsSBjmbc8zg6AMFsb8-105" value="10khz" style="text;html=1;align=center;verticalAlign=middle;whiteSpace=wrap;rounded=0;" parent="1" vertex="1">
          <mxGeometry x="710" y="610" width="70" height="30" as="geometry" />
        </mxCell>
        <mxCell id="FUVsSBjmbc8zg6AMFsb8-106" value="100khz" style="text;html=1;align=center;verticalAlign=middle;whiteSpace=wrap;rounded=0;" parent="1" vertex="1">
          <mxGeometry x="710" y="730" width="70" height="30" as="geometry" />
        </mxCell>
        <mxCell id="FUVsSBjmbc8zg6AMFsb8-108" value="CLK" style="text;html=1;align=center;verticalAlign=middle;whiteSpace=wrap;rounded=0;" parent="1" vertex="1">
          <mxGeometry x="670" y="797" width="60" height="30" as="geometry" />
        </mxCell>
      </root>
    </mxGraphModel>
  </diagram>
</mxfile>
